<svg xmlns="http://www.w3.org/2000/svg" xmlns:xlink="http://www.w3.org/1999/xlink" version="1.1" id="Calque_1" x="0px" y="0px" style="enable-background:new 0 0 240.9 155.9;" xml:space="preserve" viewBox="73.12 23.1 92.76 112.2">
<style type="text/css">
	.st0{fill:#009BD9;}
	.st1{fill-rule:evenodd;clip-rule:evenodd;fill:#009BD9;}
</style>
<g>
	<path class="st0" d="M82.5,122.6h1.7v7.2c0,1.3-0.1,2.3-0.4,3c-0.3,0.7-0.8,1.3-1.5,1.8c-0.7,0.5-1.7,0.7-2.9,0.7   c-1.2,0-2.1-0.2-2.9-0.6c-0.7-0.4-1.3-1-1.6-1.8c-0.3-0.8-0.5-1.8-0.5-3.1v-7.2H76v7.2c0,1.1,0.1,1.9,0.3,2.4   c0.2,0.5,0.6,0.9,1,1.2c0.5,0.3,1.1,0.4,1.8,0.4c1.2,0,2.1-0.3,2.6-0.8c0.5-0.6,0.8-1.6,0.8-3.2V122.6L82.5,122.6z"/>
	<polygon class="st0" points="91.2,135.1 91.2,122.6 92.9,122.6 99.5,132.4 99.5,122.6 101.1,122.6 101.1,135.1 99.4,135.1    92.8,125.2 92.8,135.1 91.2,135.1  "/>
	<path class="st0" d="M117,130.7l1.7,0.4c-0.3,1.4-1,2.4-1.9,3.1c-0.9,0.7-2,1.1-3.3,1.1c-1.3,0-2.4-0.3-3.3-0.8   c-0.8-0.6-1.5-1.3-1.9-2.4c-0.4-1-0.7-2.2-0.7-3.4c0-1.3,0.2-2.4,0.7-3.4c0.5-1,1.2-1.7,2.1-2.2c0.9-0.5,1.9-0.8,3-0.8   c1.3,0,2.3,0.3,3.2,1c0.9,0.6,1.4,1.5,1.8,2.7l-1.6,0.4c-0.3-0.9-0.7-1.6-1.3-2c-0.6-0.4-1.2-0.6-2.1-0.6c-1,0-1.8,0.2-2.4,0.7   c-0.6,0.5-1.1,1.1-1.4,1.9c-0.3,0.8-0.4,1.6-0.4,2.4c0,1.1,0.2,2,0.5,2.8c0.3,0.8,0.8,1.4,1.4,1.8c0.7,0.4,1.4,0.6,2.1,0.6   c0.9,0,1.7-0.3,2.4-0.8C116.4,132.5,116.8,131.7,117,130.7L117,130.7z"/>
	<polygon class="st0" points="128.2,135.1 128.2,124 124.1,124 124.1,122.6 134,122.6 134,124 129.9,124 129.9,135.1 128.2,135.1     "/>
	<path class="st0" d="M137.3,135.1l4.8-12.5h1.8l5.1,12.5h-1.9l-1.5-3.8h-5.2l-1.4,3.8H137.3L137.3,135.1z M140.9,129.9h4.2   l-1.3-3.5c-0.4-1.1-0.7-1.9-0.9-2.6c-0.2,0.8-0.4,1.6-0.7,2.4L140.9,129.9L140.9,129.9z"/>
	<path class="st0" d="M154.6,135.1v-12.5h4.3c1,0,1.7,0.1,2.2,0.2c0.7,0.2,1.3,0.5,1.8,0.9c0.7,0.6,1.2,1.3,1.5,2.1   c0.3,0.9,0.5,1.9,0.5,3c0,0.9-0.1,1.8-0.3,2.5c-0.2,0.7-0.5,1.3-0.9,1.8c-0.3,0.5-0.7,0.9-1.1,1.1c-0.4,0.3-0.9,0.5-1.5,0.6   c-0.6,0.1-1.3,0.2-2,0.2H154.6L154.6,135.1z M156.3,133.6h2.7c0.8,0,1.5-0.1,1.9-0.2c0.5-0.2,0.8-0.4,1.1-0.7   c0.4-0.4,0.7-0.9,0.9-1.6c0.2-0.7,0.3-1.5,0.3-2.4c0-1.3-0.2-2.3-0.6-3c-0.4-0.7-1-1.2-1.6-1.4c-0.4-0.2-1.2-0.3-2.1-0.3h-2.6   V133.6L156.3,133.6z"/>
	<polygon class="st1" points="74,119.3 164.9,119.3 164.9,120.1 74,120.1 74,119.3  "/>
	<path class="st0" d="M79.8,108.1h1v4.7c0,0.8-0.1,1.5-0.3,1.9c-0.2,0.5-0.5,0.9-1,1.2c-0.5,0.3-1.1,0.5-1.8,0.5   c-0.7,0-1.3-0.1-1.8-0.4c-0.5-0.3-0.8-0.6-1-1.1c-0.2-0.5-0.3-1.2-0.3-2v-4.7h1v4.7c0,0.7,0.1,1.2,0.2,1.6c0.1,0.3,0.3,0.6,0.7,0.8   c0.3,0.2,0.7,0.3,1.1,0.3c0.8,0,1.3-0.2,1.6-0.5c0.3-0.4,0.5-1,0.5-2.1V108.1L79.8,108.1z"/>
	<polygon class="st0" points="82.5,116.2 82.5,108.1 83.6,108.1 87.7,114.5 87.7,108.1 88.7,108.1 88.7,116.2 87.7,116.2    83.5,109.8 83.5,116.2 82.5,116.2  "/>
	<polygon class="st0" points="90.6,116.2 90.6,108.1 91.7,108.1 91.7,116.2 90.6,116.2  "/>
	<polygon class="st0" points="95.5,116.2 95.5,109.1 92.9,109.1 92.9,108.1 99.2,108.1 99.2,109.1 96.6,109.1 96.6,116.2    95.5,116.2  "/>
	<polygon class="st0" points="100.2,116.2 100.2,108.1 105.9,108.1 105.9,109.1 101.3,109.1 101.3,111.5 105.6,111.5 105.6,112.5    101.3,112.5 101.3,115.2 106.1,115.2 106.1,116.2 100.2,116.2  "/>
	<path class="st0" d="M107.6,116.2v-8.1h2.7c0.6,0,1.1,0,1.4,0.1c0.5,0.1,0.8,0.3,1.2,0.6c0.4,0.4,0.7,0.8,0.9,1.4   c0.2,0.6,0.3,1.2,0.3,1.9c0,0.6-0.1,1.2-0.2,1.6c-0.1,0.5-0.3,0.9-0.5,1.2c-0.2,0.3-0.5,0.6-0.7,0.7c-0.3,0.2-0.6,0.3-0.9,0.4   c-0.4,0.1-0.8,0.1-1.3,0.1H107.6L107.6,116.2z M108.6,115.2h1.7c0.5,0,0.9,0,1.2-0.1c0.3-0.1,0.5-0.2,0.7-0.4   c0.2-0.3,0.4-0.6,0.6-1c0.1-0.4,0.2-0.9,0.2-1.6c0-0.8-0.1-1.5-0.4-2c-0.3-0.5-0.6-0.8-1-0.9c-0.3-0.1-0.7-0.2-1.3-0.2h-1.7V115.2   L108.6,115.2z"/>
	<polygon class="st0" points="118.5,116.2 118.5,108.1 119.6,108.1 123.7,114.5 123.7,108.1 124.7,108.1 124.7,116.2 123.7,116.2    119.5,109.8 119.5,116.2 118.5,116.2  "/>
	<path class="st0" d="M125.6,116.2l3-8.1h1.1l3.2,8.1h-1.2l-0.9-2.5h-3.3l-0.9,2.5H125.6L125.6,116.2z M127.9,112.9h2.7l-0.8-2.2   c-0.2-0.7-0.4-1.2-0.6-1.7c-0.1,0.5-0.2,1-0.4,1.5L127.9,112.9L127.9,112.9z"/>
	<polygon class="st0" points="135,116.2 135,109.1 132.4,109.1 132.4,108.1 138.6,108.1 138.6,109.1 136,109.1 136,116.2 135,116.2     "/>
	<polygon class="st0" points="139.9,116.2 139.9,108.1 140.9,108.1 140.9,116.2 139.9,116.2  "/>
	<path class="st0" d="M142.4,112.3c0-1.3,0.3-2.4,1.1-3.2c0.7-0.8,1.6-1.1,2.7-1.1c0.7,0,1.4,0.2,2,0.5c0.6,0.4,1,0.9,1.3,1.5   c0.3,0.6,0.5,1.4,0.5,2.2c0,0.8-0.2,1.6-0.5,2.2c-0.3,0.6-0.8,1.1-1.4,1.5c-0.6,0.3-1.2,0.5-1.9,0.5c-0.7,0-1.4-0.2-2-0.6   c-0.6-0.4-1-0.9-1.3-1.5C142.6,113.6,142.4,113,142.4,112.3L142.4,112.3z M143.5,112.3c0,1,0.3,1.7,0.8,2.3   c0.5,0.6,1.1,0.8,1.9,0.8c0.8,0,1.4-0.3,1.9-0.8c0.5-0.6,0.8-1.4,0.8-2.4c0-0.7-0.1-1.2-0.3-1.7c-0.2-0.5-0.5-0.9-0.9-1.1   c-0.4-0.3-0.9-0.4-1.4-0.4c-0.7,0-1.4,0.3-1.9,0.8C143.8,110.2,143.5,111.1,143.5,112.3L143.5,112.3z"/>
	<polygon class="st0" points="151.3,116.2 151.3,108.1 152.3,108.1 156.5,114.5 156.5,108.1 157.5,108.1 157.5,116.2 156.4,116.2    152.3,109.8 152.3,116.2 151.3,116.2  "/>
	<path class="st0" d="M158.9,113.6l1-0.1c0,0.4,0.2,0.7,0.3,1c0.2,0.3,0.4,0.5,0.8,0.6c0.4,0.2,0.8,0.2,1.2,0.2   c0.4,0,0.7-0.1,1.1-0.2c0.3-0.1,0.5-0.3,0.7-0.5c0.1-0.2,0.2-0.4,0.2-0.7c0-0.3-0.1-0.5-0.2-0.7c-0.1-0.2-0.4-0.3-0.7-0.5   c-0.2-0.1-0.7-0.2-1.4-0.4c-0.7-0.2-1.2-0.3-1.5-0.5c-0.4-0.2-0.7-0.5-0.8-0.8c-0.2-0.3-0.3-0.6-0.3-1c0-0.4,0.1-0.8,0.3-1.1   c0.2-0.4,0.6-0.6,1-0.8c0.4-0.2,0.9-0.3,1.4-0.3c0.6,0,1.1,0.1,1.5,0.3c0.4,0.2,0.8,0.5,1,0.9c0.2,0.4,0.4,0.8,0.4,1.3l-1,0.1   c-0.1-0.5-0.2-0.9-0.5-1.2c-0.3-0.3-0.8-0.4-1.4-0.4c-0.6,0-1.1,0.1-1.4,0.4c-0.3,0.2-0.4,0.5-0.4,0.9c0,0.3,0.1,0.5,0.3,0.7   c0.2,0.2,0.7,0.4,1.6,0.6c0.8,0.2,1.4,0.4,1.7,0.5c0.5,0.2,0.8,0.5,1,0.8c0.2,0.3,0.3,0.7,0.3,1.2c0,0.4-0.1,0.8-0.4,1.2   c-0.2,0.4-0.6,0.7-1,0.9c-0.4,0.2-1,0.3-1.5,0.3c-0.7,0-1.3-0.1-1.8-0.3c-0.5-0.2-0.9-0.5-1.1-1C159,114.6,158.9,114.1,158.9,113.6   L158.9,113.6z"/>
</g>
<path id="emblem" class="st0" d="M147,93.7c0,0,0.1,0,0.1,0.1c-1.7,1.7-3.9,2.9-5.9,3.5c-1.5,0.4-3.1,0.5-4.7,0.3  c-2.5-0.3-4.6-1.3-6.6-2.6c-1.2-0.8-2.4-1.6-3.6-2.4c-1.4-0.9-2.9-1.1-4.5-0.8c-0.9,0.1-0.2,0.5-0.1,0.6c2.2,1.1,4.2,2.3,6.1,3.8  c1.3,0.9,3.6,3.2,3.6,3.2l-1.7,1.5c0,0-1.3-1.5-1.9-2c-3.8-3.9-7.1-5.6-7.8-6.1c-0.1-0.1-0.3-0.1-0.4-0.1c-0.1,0-0.3,0.1-0.4,0.1  c-0.7,0.4-4.1,2.2-7.8,6.1c-0.6,0.6-1.9,2-1.9,2l-1.7-1.5c0,0,2.3-2.2,3.6-3.2c1.9-1.5,3.9-2.7,6.1-3.8c0.1-0.1,0.8-0.5-0.1-0.6  c-1.6-0.3-3.1-0.1-4.5,0.8c-1.2,0.8-2.4,1.6-3.6,2.4c-2,1.3-4.2,2.3-6.6,2.6c-1.6,0.2-3.1,0.1-4.7-0.3c-2.1-0.6-4.3-1.8-6-3.5  c0,0,0.1-0.1,0.1-0.1c0.1,0.1,0.2,0.1,0.4,0.2c2.5,1.3,5.2,1.4,7.9,0.9c1.9-0.4,3.6-1.1,5.3-1.8c1.2-0.5,2.5-1.1,3.7-1.5  c3.3-1.1,6.7-1.1,10-0.2c0.1,0,0.1,0,0.2,0c0.1,0,0.1,0,0.2,0c3.4-0.9,6.7-0.9,10,0.2c1.3,0.4,2.5,1,3.7,1.5  c1.7,0.7,3.5,1.5,5.3,1.8c2.7,0.5,5.4,0.4,7.9-0.9C146.8,93.8,146.9,93.7,147,93.7z M154.9,86.5c-1.4,1.1-2.4,1.5-3.6,1.9  c-1.8,0.6-3.7,0.7-5.6,0.8c-2.5,0.1-4.9,0.2-7.3,0.6c0,0,0,0,0,0c-0.2,0-0.2,0-0.2-0.1c0,0,0,0,0,0c2.2-0.8,3.7-2.5,4.8-4.6  c0.8-1.5,2-4.3,2.4-4.8c0,0,0-0.1,0-0.1c-0.2,0.1-2.6,2.1-3.7,3.1c-1.4,1.3-2.6,2.6-4,3.9c-2.1,2-5.1,2.9-6.2,3.2c0,0-0.1,0-0.1,0  c0,0,0,0.1-0.1,0.1c0,0,0,0,0,0c0,0,0,0,0,0c0.9,0.2,3.3,0.7,4.6,1.1c1.9,0.5,3.9,1,5.9,1.1c2.2,0.2,4.4-0.1,6.4-0.8  c2.3-0.9,5.1-2.9,6.8-5.3c0,0,0,0,0,0C155,86.4,155,86.5,154.9,86.5z M162.4,75.1c-0.1,0.1-1.3,1.7-4.3,3.7c-1.4,1-2.8,1.6-4.4,2.4  c-2,0.9-3.7,1.8-5.4,3.2c-0.1,0.1-0.2,0.2-0.3,0.2c-0.1,0-0.1,0-0.1-0.1c0.1-0.1,2.6-2.6,3.3-8c0.3-1.9,0.3-3.9,0.9-5.7  c0-0.1,0-0.1,0-0.1c0,0,0,0,0,0c-1.8,2.1-3.3,5.3-4,7.3c-0.5,1.4-1,2.9-1.5,4.3c-0.7,1.9-1.6,3.8-3.1,5.2c0,0-0.1,0.1-0.1,0.1  s0,0,0,0.1c0,0,0,0,0,0c0.2,0,0.4-0.1,0.5-0.1c1.7-0.3,3.3-0.7,5-1c2.8-0.5,5.2-1.5,7.5-3.2c2.3-1.7,4.2-3.7,5.4-6.3  c0.3-0.7,0.6-1.3,0.8-2.1C162.5,75,162.4,75,162.4,75.1z M165.6,62.3c-0.7,2.3-2,4.1-3.9,6.1c-1.5,1.5-4.3,4.4-5.6,6.4  c0,0.1-0.1,0-0.1-0.1c0.6-1.7,0.9-4.8,0.5-7.2c-0.3-2-1.2-4.3-1.4-6.8c0,0,0,0,0,0c0,0-0.1-0.1-0.1-0.1c0,0,0,0-0.1,0.2  c-0.4,1.5-1,3.3-1.1,5c-0.1,2,0.3,4.7,0.1,6.7c-0.2,2.4-0.4,4.8-1.5,7c0,0,0,0,0,0c0,0.1,0,0.2,0,0.2s0,0,0,0  c0.9-0.6,3.4-2.1,5.1-3.2c2.1-1.4,3.9-3.1,5.4-5.1c1.8-2.6,2.8-5.7,2.8-8.9c0-0.1,0-0.3,0-0.3C165.7,62.2,165.6,62.3,165.6,62.3z   M160.2,63.7C160.2,63.7,160.2,63.7,160.2,63.7c-0.1,0.1-0.1,0-0.1,0c0.1-0.6,0.1-1.4,0-2.1c-0.2-2.4-1.6-4.4-2.9-6.4  c-0.7-1-1.8-2.9-2.3-4.1c0,0-0.1-0.1-0.1-0.1c0,0.2,0,0.9,0.1,1.4c0.4,3.4,1.4,6.8,2.6,10c0.8,2.2,1.1,4,0.9,6.3c0,0.2,0,0.2,0,0.3  c0,0,0,0,0,0c0.8-1.1,2.3-2.7,3.2-3.8c1-1.2,6.1-7,3.6-15c-0.2-0.5-0.3-0.9-0.4-1c0,0-0.1,0.1-0.1,0.1c0,5.8-2.8,8.2-3.9,12.2  C160.6,62.4,160.4,63.1,160.2,63.7z M155.9,45.7c-0.9-0.8-2.3-2.2-3.1-3.4c0,0,0,0,0,0c0,0,0,0,0,0c0,0-0.1,0-0.1,0c0,0-0.1,0-0.1,0  c0,0.2,0.8,2.8,1.4,4c0.7,1.7,1.9,3.1,3,4.6c0.1,0.1,0.2,0.2,0.2,0.3c1.1,1.5,2.9,4.7,3.3,6.4c0,0,0.1,0.1,0.1,0.1  c0.2-0.6,0.9-2.9,1.4-4.4c0.1-0.3,1.1-3.4,1.3-4.7c0.5-3.8-0.7-8.7-2.9-11.4c0,0-0.1,0.1-0.1,0.1c0,0.1,0.1,0.2,0.1,0.4  c0,0.2,0.1,0.3,0.1,0.5c0.6,2.5,0.4,4.2,0.1,6.3c-0.2,1.7-0.6,3.3-0.5,5c0,0.3,0.2,2.4,0.2,2.4c0,0.1-0.1,0-0.1,0  c0,0-0.3-0.8-0.5-1.4c-0.1-0.3-0.2-0.5-0.3-0.7C158.5,47.8,157.4,46.9,155.9,45.7z M153.5,30.4c0.7,0.7,1.3,1.5,1.6,2.4  c0.6,1.4,0.8,3.6,1.2,5.2c0.2,1,0.4,1.7,0.7,2.8c0,0.1-0.1,0.1-0.1,0c0,0,0,0,0,0c-1.1-1.5-2.6-2.5-4.6-3.8c-1.2-0.8-2.1-1.5-3-2.7  c-0.2-0.2-0.3-0.4-0.5-0.6c0,0-0.1,0-0.1,0c0,0,0,0.1,0,0.2c0.3,1.3,1.1,3.7,2.6,5.1c1.1,1,2.3,1.9,3.4,2.9c2,1.7,3.5,3.6,4,4.2  c0,0,0,0,0,0s0.1,0.1,0.1,0c0,0,0,0,0,0c0,0,0,0,0,0c0-0.3,0-0.8,0-1.3c0-1.3,0.1-2.9,0.1-4.1c0-0.5,0-0.9,0-1.4  c0-1.4-0.2-2.8-0.7-4.1c-1-2.1-2.4-3.8-4.5-4.9c-0.1-0.1-0.3-0.1-0.4-0.2C153.4,30.2,153.4,30.3,153.5,30.4  C153.4,30.4,153.4,30.4,153.5,30.4z M144.7,26.3c1.2,1.1,2.2,2.4,3.1,3.7c0.9,1.3,1.8,2.6,3,3.6c0.8,0.8,3.1,2.6,3.7,3c0,0,0,0,0,0  c0,0,0,0,0,0s0,0,0,0c-0.1-0.7-1.2-5.5-4.2-7.9c-1.6-1.4-3.8-2.3-5.9-2.9c0,0,0,0.1,0,0.1C144.5,26.2,144.6,26.2,144.7,26.3z   M97,92.6c2-0.1,4-0.6,5.9-1.1c1.3-0.3,3.7-0.9,4.6-1.1c0,0,0,0,0,0c0,0,0,0,0,0c0,0,0-0.1-0.1-0.1c0,0-0.1,0-0.1,0  c-1.1-0.3-4.1-1.2-6.2-3.2c-1.4-1.3-2.6-2.6-4-3.9c-1.1-1-3.5-3.1-3.7-3.1c0,0,0,0.1,0,0.1c0.4,0.5,1.6,3.3,2.4,4.8  c1.1,2.1,2.6,3.8,4.8,4.6c0,0,0,0,0,0c0,0.1,0,0.1-0.2,0.1c0,0,0,0,0,0c-2.4-0.4-4.8-0.5-7.3-0.6c-1.9-0.1-3.8-0.2-5.6-0.8  c-1.2-0.4-2.1-0.8-3.6-1.9c0,0-0.1,0-0.2,0c0,0,0,0,0,0c1.6,2.4,4.5,4.5,6.8,5.3C92.6,92.6,94.8,92.8,97,92.6z M95.1,87.6  c0.1,0,0.3,0,0.5,0.1c0,0,0,0,0,0c0-0.1,0-0.1,0-0.1s-0.1-0.1-0.1-0.1c-1.5-1.5-2.4-3.3-3.1-5.2c-0.5-1.4-1-2.9-1.5-4.3  c-0.7-2-2.2-5.3-4-7.3c0,0,0,0,0,0c0,0-0.1,0.1,0,0.1c0.6,1.8,0.6,3.8,0.9,5.7c0.7,5.4,3.2,7.9,3.3,8c0.1,0.1,0,0.1-0.1,0.1  c-0.1-0.1-0.2-0.1-0.3-0.2c-1.7-1.4-3.4-2.2-5.4-3.2c-1.6-0.7-2.9-1.4-4.4-2.4c-3-2-4.2-3.6-4.3-3.7c0,0-0.1,0-0.2,0  c0.2,0.7,0.5,1.4,0.8,2.1c1.2,2.6,3.2,4.6,5.4,6.3c2.2,1.7,4.7,2.7,7.5,3.2C91.8,86.9,93.4,87.3,95.1,87.6z M81.3,76.6  c1.7,1.1,4.2,2.6,5.1,3.2c0,0,0,0,0,0s0.1-0.1,0-0.2c0,0,0,0,0,0c-1.1-2.2-1.3-4.6-1.5-7c-0.2-2.1,0.2-4.7,0.1-6.7  c-0.1-1.7-0.6-3.5-1.1-5C84,60.7,84,60.6,84,60.6c0,0-0.1,0.1-0.1,0.1c0,0,0,0,0,0c-0.2,2.5-1.1,4.7-1.4,6.8  c-0.4,2.4-0.1,5.5,0.5,7.2c0,0.1-0.1,0.1-0.1,0.1c-1.3-2-4.2-4.9-5.6-6.4c-1.9-2-3.2-3.8-3.9-6.1c0,0-0.1-0.1-0.1-0.1  c0,0,0,0.2,0,0.3c-0.1,3.2,1,6.3,2.8,8.9C77.4,73.5,79.2,75.2,81.3,76.6z M80.5,69.1C80.5,69.1,80.5,69.1,80.5,69.1  c0.1-0.1,0.1-0.1,0.1-0.3c-0.2-2.3,0.1-4.2,0.9-6.3c1.1-3.2,2.2-6.6,2.6-10c0-0.5,0.1-1.2,0.1-1.4c0,0-0.1,0-0.1,0.1  c-0.5,1.2-1.6,3-2.3,4.1c-1.3,2-2.7,4-2.9,6.4c0,0.6,0,1.4,0,2.1c0,0,0,0.1-0.1,0.1c0,0,0,0,0,0c-0.2-0.6-0.3-1.3-0.6-2  c-1.2-3.9-4-6.4-3.9-12.2c0,0-0.1-0.1-0.1-0.1c-0.1,0.1-0.2,0.5-0.4,1c-2.5,8,2.6,13.8,3.6,15C78.2,66.4,79.7,68,80.5,69.1z   M76.8,53.2c0.5,1.5,1.3,3.8,1.4,4.4c0,0,0.1,0,0.1-0.1c0.4-1.6,2.2-4.8,3.3-6.4c0.1-0.1,0.2-0.2,0.2-0.3c1.1-1.5,2.3-2.9,3-4.6  c0.5-1.2,1.3-3.7,1.4-4c0,0,0,0-0.1,0c0,0-0.1,0-0.1,0c0,0,0,0,0,0c0,0,0,0,0,0c-0.8,1.2-2.2,2.6-3.1,3.4c-1.5,1.2-2.6,2.1-3.5,3.9  c-0.1,0.2-0.2,0.4-0.3,0.7c-0.3,0.6-0.5,1.4-0.5,1.4c0,0-0.1,0.1-0.1,0c0-0.1,0.1-2.2,0.2-2.4c0.1-1.7-0.2-3.3-0.5-5  c-0.3-2.1-0.5-3.8,0.1-6.3c0-0.2,0.1-0.3,0.1-0.5c0-0.1,0.1-0.2,0.1-0.4c0,0,0-0.1-0.1-0.1c-2.2,2.7-3.5,7.6-2.9,11.4  C75.8,49.7,76.7,52.8,76.8,53.2z M80,44.8c0,0.6,0,1,0,1.3c0,0,0,0,0,0c0,0,0,0,0,0c0,0,0.1,0,0.1,0s0,0,0,0c0.5-0.6,2-2.5,4-4.2  c1.1-0.9,2.4-1.9,3.4-2.9c1.5-1.4,2.4-3.8,2.6-5.1c0-0.1,0-0.2,0-0.2c0,0-0.1,0-0.1,0c-0.2,0.2-0.3,0.4-0.5,0.6  c-0.9,1.2-1.8,1.9-3,2.7c-2,1.3-3.4,2.2-4.6,3.8c0,0,0,0,0,0c-0.1,0.1-0.2,0-0.1,0c0.3-1.1,0.5-1.8,0.7-2.8c0.4-1.6,0.6-3.8,1.2-5.2  c0.4-0.9,0.9-1.7,1.6-2.4c0,0,0,0,0,0c0-0.1,0-0.2,0-0.2c-0.1,0-0.3,0.1-0.4,0.1c-2.1,1.1-3.5,2.8-4.5,4.9c-0.6,1.3-0.7,2.7-0.7,4.1  c0,0.5,0,0.9,0,1.4C80,41.9,80,43.6,80,44.8z M84.4,36.7C84.4,36.7,84.4,36.8,84.4,36.7C84.5,36.7,84.5,36.7,84.4,36.7  c0.6-0.5,3-2.3,3.7-3.1c1.2-1,2.1-2.3,3-3.6c0.9-1.3,1.9-2.6,3.1-3.7c0.1-0.1,0.2-0.2,0.3-0.2c0,0,0-0.1,0-0.1  c-2.1,0.6-4.3,1.4-5.9,2.9C85.6,31.2,84.5,36.1,84.4,36.7C84.4,36.7,84.4,36.7,84.4,36.7z M118.6,63.2c0.2-0.4-0.4-0.6-0.5,0  C118,63.8,118.4,63.6,118.6,63.2z M125.1,48.2c-0.2-0.1-1.2,1-1,1.2C124.2,49.5,125.2,48.3,125.1,48.2z M125.3,48  c0.1,0.1,0.8-0.3,0.7-0.4c-0.1-0.1-0.9-0.4-0.9-0.2C125.1,47.8,125.2,47.9,125.3,48z M136.7,58c-0.3,0-0.6,0.4-0.5,0.4  c0.2,0,0.4,0.2,0.5,0.1C137.1,58.5,137,58,136.7,58z M132.6,47.2c-0.3,0-0.3,0.3-0.1,0.4c0.1,0.1,0.5,0,0.6-0.1  c0.2-0.1,0.4-0.2,0.3-0.5c0-0.2-0.4-0.6-0.2-0.8c0.2-0.2,0.4,0.1,0.6,0c0.2-0.1,0.2-0.2,0.2-0.4c0-0.3-0.1-0.7-0.4-0.7  c-0.3,0-0.7,0.7-0.7,0.7c0,0.1-0.1,0.3,0,0.6C133.1,46.8,133.1,47.2,132.6,47.2z M138.2,47.3c0,0.2,0.4,1.2,0.5,1.5  c0,0.3,0.1,1.2,0.4,1.1c0.2-0.1,0.1-0.6,0.1-0.8c-0.1-0.6-0.2-1.1-0.4-1.8c-0.1-0.4-0.6-1.6-0.8-1.5c-0.2,0,0.3,0.9,0.3,1.1  C138.3,47.1,138.2,47.1,138.2,47.3z M135.2,32.8c0.3,0.1,0.3-0.4-0.2-0.8c-0.5-0.4-1.1-0.2-0.9,0C134.3,32.2,135,32.7,135.2,32.8z   M122.5,29.2c-0.6-0.4-0.1-0.9-0.5-1.2c-0.3-0.2-1.2,0-1.4,0.3c-0.4,0.5,0.5,0.3,0.8,0.5c0.3,0.2,1.1,0.8,1.2,0.7  C122.7,29.3,122.6,29.2,122.5,29.2z M125.9,27.5c-0.7-0.3-3.6-0.3-3.5,0.4c0.1,0.6,1.6,0,2,0C124.8,27.8,126.5,27.8,125.9,27.5z   M117.6,60.3c0-0.1-0.3-0.1-0.2,0c0.1,0.1-0.1,0.3,0.1,0.4c0.2,0.2,0.5,0.2,0.7,0c0.1-0.1,0-0.3,0-0.4  C118,60.3,117.7,60.4,117.6,60.3z M116.5,54.7c0.2,0,0.2-0.2,0.4-0.2c0.1,0,0,0.2,0.3,0.2c0.2,0,0.5-0.6-0.3-0.6  C116.3,54.1,116.4,54.7,116.5,54.7z M117.5,55.3c-0.5-0.1-0.4,0.1-0.7,0.2c-0.5,0.1-0.1-0.4-0.3-0.5c-0.1-0.1-0.4,0.3-0.4,0.6  c0,0.1,0,0.5,0.2,0.5c0.2,0,1.3,0.1,1.6,0.2C118.4,56.4,117.9,55.4,117.5,55.3z M112.3,60.9c0.1,0,0.2-0.5,0.2-0.8  c-0.1-0.3-0.6-0.1-0.6,0.1C111.8,60.3,112.2,60.9,112.3,60.9z M105.5,60.8c0-0.2,0-0.9-0.2-1c-0.2-0.1-0.1,0.1-0.2,0.1  c-0.1,0-0.1-0.3-0.2-0.3c-0.1,0,0,0.5,0.2,0.8C105.2,60.8,105.5,61.2,105.5,60.8z M105.3,59.3c0-0.1,0.3-1.1,0.2-1.6  c0-0.4-0.3-0.8-0.3-0.8c-0.1,0,0,0.3,0,0.7c0,0.6-0.3,1.1-0.3,1.3C105,59.1,105.2,59.5,105.3,59.3z M87.1,55.5  c0-8.7,3.4-16.8,9.5-22.9c6.1-6.1,14.2-9.5,22.9-9.5c8.7,0,16.8,3.4,22.9,9.5c6.1,6.1,9.5,14.2,9.5,22.9c0,8.7-3.4,16.8-9.5,22.9  c-6.1,6.1-14.2,9.5-22.9,9.5c-8.7,0-16.8-3.4-22.9-9.5C90.5,72.3,87.1,64.2,87.1,55.5z M97.1,76.9l3.5-3.5c-0.7-0.7-1.3-1.5-1.9-2.3  c-0.3-0.1-0.5-0.3-0.7-0.5c-0.3-0.4-0.5-0.9-0.6-0.9c-0.1,0,0,0.3-0.3,0.4c-0.4,0.1-1.1-1-1.3-1.4c-0.3-0.5-0.7-0.5-1-0.9  c-0.1-0.1-0.2-0.5-0.4-0.3c-0.2,0.4-1.1-0.8-1.3-0.8c-0.2,0.1,0,0.3-0.1,0.4c-0.2,0.2-0.9-0.9-1.2-0.8c-0.2,0.1-0.3,0.3-0.3,0.6  c0,0.3,0.4,1.1,0.2,1.2c-0.2,0.1-1.2-2.5-1-2.6c0.1-0.1,0.1,0.1,0.2,0c0.1-0.1-0.1-0.3-0.2-0.5c-0.1-0.3-0.3-0.3-0.3-0.6  c0-0.3,0.4-0.2,0.4-0.4c0-0.2,0-0.3,0.2-0.4c0.2-0.1,0.5,0,0.6-0.4c0.1-0.4,0.3,0,0.3,0.3c0,0.3,0.9,0.4,0.9,0.2  c0-0.1-0.3-0.1-0.3-0.3c0-0.2,0.5,0,0.8,0c0.1,0,0.4-0.2,0.7,0c0.3,0.2,0.6,0.3,0.8,0.3c-0.8-2.3-1.2-4.8-1.3-7.4h-5  C88.7,64,91.7,71.3,97.1,76.9z M117.5,48.2c0,0.1-0.3,0.4-0.5,0.7c0.6-0.2,1.2-0.4,1.8-0.4v-5c-2.8,0.2-5.3,1.3-7.3,3l3.5,3.5  c0.4-0.3,0.8-0.6,1.3-0.9c0.1-0.1,0.2-0.1,0.4-0.2C116.9,48.6,117.5,48.2,117.5,48.2z M105.3,66.7c0,0.1,0,0.2,0,0.3  c0.3,0.3,0.5,0.6,0.8,0.9l3.5-3.5c-1.7-1.8-2.8-4.1-3.2-6.7c-0.1,0-0.2,0-0.3-0.1c-0.1-0.1,0-0.2,0.2-0.4c-0.1-0.4-0.1-0.8-0.1-1.1  h-2.3c0,0.4,0.2,0.9-0.1,1.1c-0.2,0.2-0.5,0-0.7,0c-0.4,0.1-0.6,0.6-0.4,1c0.1,0.2,0.2,0.4,0.1,0.7c0,0.3-0.2,0.4,0.2,0.7  c0.4,0.2,1,0.9,0.9,1.1c-0.1,0.2-0.4-0.2-0.4,0.1c0,0.2,0.5-0.1,0.5,0.6c0,0.4,0.1,0.8,0.2,1c0.2,0.5,0.5,0.9,0.4,1.4  c0,0.5-0.1,1,0.1,1.5C104.9,65.8,105.3,66.2,105.3,66.7z M102.3,58.4c-0.3-0.3,0.2-1.3,0.3-1.5c0.1-0.2,0.5-0.4,0.6-0.7h-2.1  c0,1.1,0.2,2.2,0.4,3.2C102.1,59.6,103,59.2,102.3,58.4z M101,71.8C101,71.8,101,71.8,101,71.8c0.1,0.2,0.3,0.4,0.5,0.7L102,72  C101.6,71.8,101.2,71.7,101,71.8z M109.5,46.6l-3.5-3.5c-2.9,3.1-4.7,7.2-4.9,11.8h2.5c0.4-0.7,0.3-1.2,0.4-1.6  c0.1-0.4,0.3-0.7,0.6-1c0.2-0.3,0.4-0.6,0.8-0.6c0.8,0,1-0.4,1.5-0.7c0.5-0.2,1.4-0.4,1.3-0.6c-0.1-0.2-1.9,0.5-1.9,0.4  c-0.1-0.2,0.6-0.2,0.8-0.5c0.1,0,0.1-0.1,0.2-0.1C107.8,48.8,108.6,47.6,109.5,46.6z M108.9,49.8c0,0,0.1,0,0.1-0.1  c0.6-0.3,1.4-0.3,1.7-0.1c0.4,0.2,1,0.7,1.2,0.9c0.1,0.1,0.2-0.1,0.7-0.1c0.2,0,0.3,0.2,0.6,0.2c0.1,0,0.2,0,0.3,0l-3.1-3.1  C109.9,48.2,109.4,49,108.9,49.8z M105.5,53.6c-0.4,0-0.8,0.1-1,0.5c-0.1,0.2-0.2,0.5-0.1,0.7h1.8c0-0.3,0-0.7,0.1-1  C106,53.7,105.7,53.6,105.5,53.6z M110.5,63.5L114,60c-0.3-0.3-0.5-0.7-0.8-1.1c0,0,0,0,0,0c-0.1,0.1-0.1,0.1-0.1,0.2  c-0.1,0.2,0,0.7-0.2,0.9c-0.3,0.3-1-0.6-1.3-0.7c-0.3-0.1-0.5,0.3-0.5,0.4c0,0.3,0,0.4-0.1,0.4c-0.1,0-0.7-0.4-0.4-0.5  c0.3-0.1-0.1-0.4-0.2-0.5c-0.2-0.2-0.6,0-0.7-0.2c-0.2-0.2-0.5-0.4-0.6-0.5c-0.1,0-0.4-0.2-0.6,0c-0.2,0.1-0.4-0.1-0.5-0.2  c-0.1-0.1-0.1-0.2-0.2-0.2C108.1,59.9,109.1,61.9,110.5,63.5z M114,57.4C114,57.4,114,57.3,114,57.4c0-0.1,0-0.1,0-0.1  c0,0,0,0,0-0.1c0,0,0,0,0,0c0,0,0,0,0,0c0,0,0,0,0,0c0,0,0,0,0,0c0,0,0-0.1,0-0.1c0,0,0,0,0,0c0,0,0-0.1,0-0.1c0,0,0,0,0,0  c0,0,0,0,0-0.1c0,0,0,0,0,0c0,0,0,0,0,0c0,0,0,0,0,0c0,0,0,0,0-0.1c0-0.1,0.1-0.1,0.2-0.1c0.1,0,0.3,0.1,0.4,0.1  c0.1,0,0.2,0,0.3-0.1c0-0.1,0.1-0.1,0.1-0.2c0-0.1,0-0.1,0-0.2c0,0,0,0,0-0.1c0-0.1-0.1-0.1-0.2,0c0,0-0.1,0-0.1,0  c-0.1,0-0.1,0-0.2,0c0,0-0.1,0-0.1,0c-0.1,0-0.1,0-0.2-0.1c0,0,0-0.1,0-0.1c0,0,0-0.1-0.1-0.1c-0.1-0.1-0.2-0.2-0.4-0.3  c-0.1,0-0.1-0.1-0.2-0.1c0,0-0.1-0.1-0.1-0.1c0,0,0-0.1-0.1-0.1c0,0,0,0,0,0c0,0,0,0,0,0c0,0,0,0,0,0c0,0,0,0,0,0c0,0,0,0,0,0  c0,0,0,0,0,0c0,0,0,0,0,0c0,0,0,0,0,0c0,0,0,0-0.1,0c0,0,0,0,0,0c0,0,0,0-0.1,0c0,0,0,0,0,0c-0.2,0-0.3,0-0.5,0.2c0,0,0,0,0,0  c0,0-0.1,0.1-0.1,0.1c0,0,0,0,0,0c0,0-0.1,0.1-0.1,0.1c0,0,0,0,0,0c0,0-0.1,0.1-0.1,0.1c-0.1,0.1-0.1,0.2-0.2,0.3  c-0.4,1.1-0.9,0.7-0.8,1.1c0,0,0.1,0.1,0.3,0.1c0.1,0,0.1,0,0.2,0c0.1,0,0.2,0,0.2,0c0.1,0,0.2,0,0.3,0c0,0,0.1,0,0.1,0  c0,0,0,0,0.1,0c0,0,0,0,0.1,0c0,0,0,0,0.1,0c0,0,0,0,0.1,0c0,0,0,0,0,0c0,0,0.1,0,0.1,0c0.1,0,0.1,0,0.2-0.1c0,0,0,0,0,0  c0.1,0,0.1,0,0.2,0c0.1,0,0.2,0,0.3,0c0.1,0,0.2,0.1,0.2,0.2C114,57.1,114,57.3,114,57.4z M118.8,42.2v-5c-4.5,0.2-8.6,2-11.8,4.9  l3.5,3.5C112.7,43.6,115.6,42.3,118.8,42.2z M118.8,35.8v-5c-6.3,0.2-12,2.7-16.2,6.7l3.5,3.5C109.4,38,113.9,36,118.8,35.8z   M101.6,38.6c-4,4.3-6.6,10-6.7,16.2h5c0.2-4.9,2.1-9.4,5.3-12.7L101.6,38.6z M94.8,56.2c0.1,2.6,0.5,5,1.3,7.4c0,0,0.1,0,0.1,0  c0.5,0,1.2,0,1.5-0.3c0.5-0.4,0-1.7,0.3-2.3c0.4-0.7,1.3-2.3,1.6-2.4c0.3,0,0.2,0.2,0.4,0.2c-0.2-0.9-0.2-1.8-0.3-2.7H94.8z   M118.8,81.5c-6.7-0.2-12.7-2.9-17.2-7.1L98,77.9c5.6,5.4,12.9,8.4,20.7,8.6V81.5z M118.8,75.2c-4.4-0.2-8.5-1.7-11.9-4.5  c0.1,0.1,0.1,0.2,0.2,0.3c0.2,0.4,1,1.2,0.5,1.5c-0.4,0.3-1.1,0.1-1.5,0.1c-0.4,0-1.1,0.6-1.4,0.7c-0.5,0.1-0.7,0-1.2-0.1  c-0.1,0-0.2-0.1-0.4-0.2l-0.6,0.6c4.3,4,10,6.6,16.2,6.7V75.2z M118.8,73.5c-0.7,0.1-1.8,0-2-0.1c-0.5-0.4-1.1-0.7-1.2-1  c-0.1-0.5-0.8-0.9-0.8-1.3c0-0.5,0.7-0.7,0.5-1.2c-0.2-0.4,0.3-0.9,1-1.3c-2.2-0.5-4.1-1.6-5.8-3.1l-3.5,3.5c3.2,3,7.4,4.7,11.8,4.9  V73.5z M119.9,66.8c0.5-0.1,1.1-0.2,1.6-0.3c0.5-0.1,0,0.7,0.3,0.7c0.4,0,1.9,0.3,2,0c0.1-0.3,0.1-0.4,0.4-0.5  c0.6-0.1,1.1-0.1,1.6-0.5c0.2-0.1,0.6-0.2,0.7-0.4c0.1-0.2-0.1-1.2-0.5-1.1c-0.2,0.1-0.4,0.3-0.8,0.5c-0.4,0.2-0.6,0.3-0.9-0.1  c-0.2-0.3,0.1-0.5,0.3-0.8c0.3-0.3,0.6-0.6,0.9-0.6c0.1,0,0.8-0.3,0.7-0.6c-0.1-0.4-0.8,0-1-0.1c-0.1-0.1,0-0.4-0.1-0.4  c-0.1,0-0.4,0.3-0.2,0.6c0.1,0.1-0.2,0.4-0.5,0.2c-0.3-0.2-0.3,0.8-0.3,0.9c0,0.2,0.4,0.1,0.1,0.4c-0.2,0.3-0.3,0.1-0.5,0.2  c-0.2,0.2-0.3,0.3,0,0.5c0.2,0.2-0.1,0.6-0.2,0.2c-0.1-0.3-0.6-0.2-0.7-0.5c-0.1-0.3-0.5-0.3-1.1-0.5c-0.4-0.2-0.3,0.4,0.3,0.6  c0.6,0.1,0.5,0.2,0.4,0.6c-0.1,0.3-0.1-0.2-0.8-0.4c-0.4-0.1-0.5-0.3-0.8-0.3c-0.3,0-0.2,0.3-0.6,0.2c-0.3-0.1-0.3,0.3-0.6,0.4  c-0.3,0.1-0.3,0.7-0.6,0.9c-0.5,0.2-1.4,0.1-1.4-0.4c0-0.5,0.1-0.8,0.3-1c0.2-0.1,0.6,0.3,1,0.1c0.3-0.2,0.3-0.5,0-0.8  c-0.1-0.1-0.3-0.2-0.3-0.3c0-0.1,0.5-0.1,0.8-0.3c0.3-0.2,0.5-0.6,0.7-0.7c0.1-0.1,0.4-0.1,0.4-0.2c0-0.1-0.2-0.4-0.2-0.5  s0.1-0.3,0.2-0.3c0.1,0,0.3,0.4,0.2,0.4c-0.1,0.1,0.1,0.3,0.2,0.2c0.2-0.1,0.7-0.3,0.9-0.3c0.2-0.1-0.1-0.6,0-0.7  c0.1-0.1,0.1,0,0.2-0.1c0.1-0.1-0.2-0.2-0.1-0.4c0-0.1,0.6-0.3,0.5-0.4c-0.2-0.1-0.4,0.2-0.5,0.3c-0.3,0.1-0.5-0.2-0.4-0.4  c0-0.1,0.2-0.6,0-0.6c-0.2-0.1-0.2,0.4-0.3,0.5c0,0.2-0.2,0.3,0,0.8c0.1,0.2,0.1,1-0.2,1.1c-0.2,0.1-0.4-0.4-0.5-0.6  c0,0,0-0.1-0.1-0.1c0,0,0,0,0,0c0,0,0,0,0,0h0c0,0,0,0,0,0c0,0,0,0,0,0c0,0,0,0,0,0c0,0-0.1,0.1-0.1,0.1c0,0-0.1,0.1-0.1,0.2  c0,0.1-0.1,0.1-0.2,0.2c-0.3,0-0.5,0-0.8,0c-0.1,0-0.2,0-0.3,0c0,0.2,0.1,0.3,0.1,0.4c0.1,0.3,0.4,0.5,0.4,0.7  c0,0.2-0.8,0.4-0.9,0.2c-0.1-0.2,0.2-0.5,0.2-0.7c0-0.3-0.2-0.5-0.2-0.7c-1.4-0.1-2.7-0.7-3.8-1.6l-3.5,3.5c1.7,1.5,3.9,2.6,6.3,2.9  c0.3-0.2,0.5-0.6,0.7-0.4C119,67.3,119.5,66.9,119.9,66.8z M120.2,75.2v5c2-0.1,4-0.4,5.8-0.9c-0.4-0.3-0.6-0.9-1-1  c-0.8-0.3-1-0.8-0.6-1.5c0.2-0.4,0.1-0.6-0.1-1c-0.3-0.5-0.8-0.8-1.1-0.9C122.1,75,121.2,75.2,120.2,75.2z M122.5,73.6  c-0.2-0.2-0.5-0.2-0.7-0.1c-0.8,0.2-0.5-0.4-1.7-0.3v0.6C121,73.8,121.8,73.7,122.5,73.6z M140.9,77.9l-3.5-3.5  c-1.8,1.7-3.9,3.2-6.1,4.3c-0.7,0.6-1.6,1-2.3,1.3c-0.3,0.1-0.6,0.3-0.9,0.3c-0.1,0-0.2,0-0.3-0.1c-2.4,0.8-4.9,1.3-7.6,1.3v5  C128,86.3,135.3,83.3,140.9,77.9z M134,42.1C134,42.1,133.9,42.1,134,42.1c0.8,0.9,1.5,1.9,2.2,2.9c0.1-0.1,0.1-0.2,0.2-0.1  c0.2,0.2-0.2,0.6,0.3,0.5c0.3-0.1,0.2,0.3,0,0.6c0.2,0.3,0.3,0.6,0.5,0.9c0.2,0.1,0.3,0.2,0.3,0.3c0.1,0.3,0.2,0.7,0.3,1.1  c0.2,0.6,0.5,1.3,0.7,1.9c0.3-0.2,0.5-0.1,0.6,0.3s-0.1,0.8-0.2,1.1c0.2,1.1,0.4,2.2,0.4,3.3h5c-0.1-3.2-0.8-6.4-2.1-9.3  c-0.1,0.1-0.2,0.1-0.4,0.3c-0.3,0.3-0.7-0.1-0.9-0.4c-0.4-0.5-1.4-2-1.8-2c-0.4-0.1-0.6-0.5-1-0.6c-0.4-0.1-0.9-0.3-0.9-0.7  c-0.1-0.4-0.2-0.6-0.6-0.7c-0.5-0.1-0.8-0.3-1.2-0.6L134,42.1C134,42,134,42.1,134,42.1z M137.1,72.2l0.3,0.3c4-4.3,6.6-10,6.7-16.2  h-5c-0.2,4.9-2.1,9.4-5.3,12.7l1.8,1.8c0,0,0,0,0-0.1c0.1-0.3,0.1-0.7,0.1-1c0-0.2,0.7-0.1,0.7,0.2c0,0.3,0.2,0.5,0.4,1.1  C137.1,71.4,137.2,71.8,137.1,72.2z M133.3,75.3c-0.1,0.3-0.8,0.9-0.7,1.1c1.3-0.9,2.6-1.8,3.7-2.9l-3.5-3.5  c-0.2,0.2-0.5,0.4-0.8,0.7c-0.1,0.4,0,0.7,0.5,0.9c0.5,0.2,1.4,0.7,1.2,1.2c-0.2,0.5-0.7,1.2-1,1.6  C132.7,74.7,133.5,74.9,133.3,75.3z M134.2,54.7C134.2,54.8,134.1,54.8,134.2,54.7l3.6,0.1c0-0.5-0.1-1-0.1-1.6  c0,0.1-0.1,0.1-0.1,0.2c-0.3,0.6-0.3,0.2-0.3,0c0-0.3,0.1-0.6,0.3-0.9c0-0.2-0.1-0.3-0.1-0.5c-0.1,0.2-0.3,0.3-0.5,0.4  c-0.2,0.1-0.3,0.5-0.4,0.6c-0.1,0.2-0.5,0-0.8,0.1c-0.6,0.3-1.2,0.3-0.7,0.9C135.3,54.4,134.4,54.3,134.2,54.7z M132.9,43.1  l-3.5,3.5c0.6,0.7,1.1,1.4,1.6,2.2c0.4,0.1,1,0.2,1.3,0.7c0.3,0.3,1,1,0.9,1.3c-0.1,0.2,0.1,0.4,0.3,0.5c0.3,0.2,0.4,0.2,0.6,0  c0.3-0.3,0.3-0.8,0.6-1.1c0.4-0.3,1.3,0.7,1.3,0.8c0,0.2-0.2,0.2-0.3,0.6c-0.1,0.4-0.5,1,0,1.1c0.6,0.2,0.7,0,1-0.5  c0.1-0.2,0.1-0.5,0.3-0.7c0.1-0.1,0.2-0.2,0.4-0.3c-0.2-1-0.6-1.9-0.9-2.9c-0.1-0.1-0.2-0.2-0.3-0.2c-0.2-0.1-0.1-0.3-0.4-0.4  c-0.3-0.1-0.5-0.2-0.5-0.8c0-0.5,0.4,0.2,0.5,0.1c0,0,0,0,0.1-0.1C134.9,45.5,134,44.2,132.9,43.1z M128.6,47.8  c-0.2,0-0.3,0-0.4-0.1l-1.2,1.2c0.2,0.1,0.5,0,0.7,0.1c0.3,0.1,0.2-0.9,0.6-0.8c0.5,0.1,0.6,0.4,0.2,0.6c-0.3,0.1,0.1,0.4-0.3,0.5  c-0.4,0.1,0.3,0.4,0.3,0.6c0,0.2-0.5,0.3,0.2,0.5c0.7,0.2,0-0.6,0.1-0.7c0.1-0.1,0.5,0.2,0.6,0.1c0-0.1,0.1-0.2,0.2-0.3  C129.4,48.8,129.1,48.3,128.6,47.8z M126.8,66.2c0,0.2-0.2,0-0.3,0.1c-0.1,0.1,1.9,1,2.3,1.1c0.2,0,0.6,0.2,1.4,0  c0.5-0.1,0.6,0.1,0.9,0.1c0.3,0,0.5-0.5,0.7-0.7c0.5-0.7,0.4-0.8,0.5-0.9c0.2-0.1,0.7,1,0.6,1.6c0,0.1,0,0.2,0,0.3l0.1,0.1  c2.9-3.1,4.7-7.2,4.9-11.8H134c0.1,0.2,0.4,0.5,0.6,1c0.2,0.4,0.3,1,0.6,1c0.5,0,1,0.5,1.1,0.8c0,0.8-2.3,0.9-2.6,0.8  c-0.3-0.1-0.4-0.1-0.4,0.3c0,0.5-0.8,0.5-1.2,0.7c-0.4,0.3-0.4,0.9-0.6,1.3c-0.1,0.2-1,1-1.2,1.2c-0.6,0.4-1.6,0.4-1.1,0.7  c0.3,0.2,1.1,0.2,1,0.1c-0.1-0.2,0.1-0.2,0.2-0.1c0.1,0.1,0.5-0.1,0.5-0.4c0-0.2-0.1-0.6,0.2-0.6c0.3,0,0.7-0.4,0.9-0.4  c0.2,0,0.4,0.5,0.3,1.7c-0.2,1.3-0.8,2.2-1,2.6c-0.3,0.4-0.5,0.1-0.9-0.1c-0.4-0.2-1.1-0.2-1.6-0.4C128.2,66.5,126.8,66,126.8,66.2z   M150.5,56.2h-5c-0.2,6.7-2.9,12.7-7.1,17.2l3.5,3.5C147.3,71.3,150.3,64,150.5,56.2z M141.9,34.1l-3.7,3.7c0.3,0.6,1,1.3,1.9,2.2  c0.4,0.4,0.8,0.7,1.1,1.1c0.3,0.3,2.3,2.8,1.9,3.2c0,0-0.1,0.1-0.1,0.1c1.6,3.3,2.4,6.9,2.5,10.5h5C150.3,47,147.3,39.7,141.9,34.1z   M120.2,29.5c4.1,0.1,8.1,1.2,11.7,3.1c0.3-0.1,0.7-0.1,0.9-0.2c0.4-0.2,1.3,0.3,1.7,0.5c0.4,0.2,0.7,0.5,1.1,0.8  c0.4,0.2,1.1,0.9,1.3,1.6c0.2,0.7,0.6,0.6,0.4,0.9c-0.1,0.1,0.1,0.2,0.3,0.3l3.4-3.4c-5.6-5.4-12.9-8.4-20.7-8.6V29.5z M120.2,35.8  c4.2,0.1,8.1,1.6,11.2,4c-0.4-0.5-0.7-1-0.9-1.1c-0.3-0.3-1.4-0.7-1.3-0.9c0.1-0.2,1.1,0.6,1.3,0.5c0.2-0.2-0.5-1.1-0.5-1.1  c0.1,0,0.9,0.8,1.3,1.5c0.2,0.3,0.6,0.1,1,0.4c0.3,0.2,0.3,0.6,0.6,0.8c0,0,0.6,0.4,0.3,0.3c-0.1,0-0.2-0.2-0.4-0.1  c-0.1,0.1,0,0.4,0.2,0.8l1.6-1.6c-0.2-0.5-0.7-1.1-1-1.2c-0.3-0.1-0.5,0.2-0.8,0.4c-0.2,0.2-0.5,0.3-0.6,0.1c0-0.1,0-0.5,0-0.7  c0-0.2-0.2-0.3-0.2-0.5c-0.1-0.4,0.1-0.9-0.2-1.2c-0.3-0.3-0.5-0.8-0.7-1.1c-0.2-0.4-0.7-1-0.7-1.5c-3.2-1.6-6.7-2.5-10.4-2.6V35.8z   M120.2,42.2c3.2,0.2,6,1.4,8.3,3.4l3.5-3.5c-3.1-2.9-7.2-4.7-11.8-4.9V42.2z M120.2,48.5c0.5,0,0.9,0.1,1.4,0.3  c0.1-0.3,0.4-0.4,0.7-0.6c0.3-0.2,0.5-0.4,0.5,0.1c0,0.4-0.2,0.6-0.4,0.7c0.5,0.2,0.9,0.5,1.4,0.8c0.1,0.1,0.2,0.1,0.3,0.2l0.5-0.5  c0,0,0,0,0-0.1c0-0.3,0.4-0.6,0.9-0.8l1.5-1.5c0,0-0.1,0-0.1,0c-0.2,0-0.5,0.4-0.7,0.3c-0.2-0.1,0.7-0.9,1.1-0.8  c0.1,0,0.1,0,0.2,0.1l0.2-0.2c-2-1.7-4.5-2.9-7.3-3V48.5z M119.5,49.9c-0.6,0-1.1,0.1-1.7,0.3c-0.1,0.1-0.1,0.1-0.1,0.2  c0.1,0.2,0.6-0.2,0.6,0.2c0,0.3-0.5,0.1-0.4,0.3c0,0.2,0.4,0.1,0.4,0.3c0,0.2-0.2,0.6-0.4,0.7c-0.2,0.1-1.4,0.3-1.5,0.6  c-0.1,0.2-0.2,0.5-0.4,0.7c-0.2,0.2-1.2,0.8-1.2,0.9c0,0.3,0.5-0.1,0.6-0.2c0.2-0.2,0.5-0.2,0.8-0.4c0.4-0.2,0.6,0.6,0.1,0.6  c-0.3,0-0.5,0.8-1,0.7c-0.1,0-0.4-0.2-0.5,0c-0.1,0.2,0.7,0.2,0.9,0.4c0.6,0.4-0.4,0.4-0.6,0.5c-0.2,0.1-0.1,0.3,0.1,0.2  c0.2-0.1,0.5-0.3,0.6,0.1c0.2,0.5-0.8,2.3-1.1,2.1c-0.2-0.1-0.3,0-0.5,0.1c0.2,0.4,0.4,0.8,0.7,1.1c0.2-0.3,0.5-0.8,0.6-0.8  c0.2,0,0.1-0.2,0.2-0.3c0.1-0.2,0.3,0,0.3-0.2c0-0.2,0.6-0.5,0.6-0.8c0-0.2-0.2-0.3-0.1-0.5c0.1-0.2,0.2-0.2,0.3-0.2  c0.1,0,0.4,0.2,0.4,0.1c0.1-0.1,0.5,0,0.8,0.2c0.1,0.1,0.4,0,0.6,0.2c0.2,0.3,0,0.3,0,0.4c0,0.1,0.1,0,0.2,0  c0.1,0.1-0.6,0.5-0.5,0.8c0.1,0.2-0.6,1.3-0.8,1.5c-0.3,0.2-0.7,0-0.8,0c-0.2,0.1-0.2,0.2-0.5,0.1c-0.2-0.1-0.5,0-0.7,0.1  c1,0.9,2.3,1.4,3.7,1.4c0.3,0,0.6,0,0.9-0.1c0.2-0.2,0.3-0.5,0.3-0.8c0-0.2,0-0.4,0.1-0.5c0.1-0.1,0.5-0.7,0.7-0.7  c0.2,0,0.3,0.1,0.5,0.1c0.5-0.1,0.7,0,0.7,0.2c0,0.3-0.6,0.2-0.5,0.3c0,0.1,0.4,0.3,0.6,0.1c0.3-0.3,0.2-0.7,0.2-0.7  c-0.2-0.2-0.2-0.3,0.1-0.2c0.2,0.1,0.2-0.6,0.3-0.8c0.2-0.3-0.4-0.1-0.6-0.1c-0.2,0-0.4-0.5-0.4-0.6c0-0.1,0.4,0.4,0.7,0.5  c0.3,0,0.6-0.3,0.6-0.5c0-0.2-0.5-0.2-0.6-0.5c0-0.1,0.4,0,0.4-0.1c0-0.1,0-0.4-0.2-0.5c-0.3-0.1-0.5-1-0.7-1.1  c-0.2-0.1-0.4,0.2-0.5,0.3c-0.1,0.1-0.3-0.1-0.2-0.2c0.1-0.1,0.5-0.4,0.5-0.6c0.1-0.4,0.6,0,0.5-0.5c-0.1-0.6-0.6-0.5-0.4-0.7  c0.2-0.3,0.1-0.7-0.4-0.6c-0.2,0-0.4-0.3-0.5-0.6c0-0.2-0.5-0.1-0.5-0.3c0-0.4-0.5-0.4-0.8-0.4c-0.3,0-1-0.5-1-0.6  c-0.1-0.1-0.5,0.1-0.4-0.4c0.1-0.5,0.6,0.1,0.8-0.1c0.2-0.1,0.1-0.3,0.1-0.4C119.5,49.9,119.5,49.9,119.5,49.9z M98,33.1l3.5,3.5  c4.5-4.3,10.6-7,17.2-7.1v-5C111,24.7,103.7,27.7,98,33.1z M88.5,54.8h5c0.2-6.7,2.9-12.7,7.1-17.2l-3.5-3.5  C91.7,39.7,88.7,47,88.5,54.8z"/>
</svg>